<mxfile host="app.diagrams.net" modified="2024-07-08T12:22:07.594Z" agent="Mozilla/5.0 (Macintosh; Intel Mac OS X 10_15_7) AppleWebKit/537.36 (KHTML, like Gecko) Chrome/126.0.0.0 Safari/537.36" etag="HR3U7dw3Qas09YYBcRKC" version="24.6.4" type="github">
  <diagram name="Pagina-1" id="C7_9IfkKeF7DStRpIM5F">
    <mxGraphModel dx="1069" dy="625" grid="1" gridSize="10" guides="1" tooltips="1" connect="1" arrows="1" fold="1" page="1" pageScale="1" pageWidth="827" pageHeight="1169" math="0" shadow="0">
      <root>
        <mxCell id="0" />
        <mxCell id="1" parent="0" />
        <mxCell id="WD45U_8TrC-EwpL1BpPQ-15" value="" style="edgeStyle=orthogonalEdgeStyle;rounded=0;orthogonalLoop=1;jettySize=auto;html=1;entryX=0;entryY=0.5;entryDx=0;entryDy=0;strokeWidth=1;shape=flexArrow;startArrow=block;" edge="1" parent="1" source="YzpoUHX3hyA8Y1LbCeKg-5" target="WD45U_8TrC-EwpL1BpPQ-6">
          <mxGeometry relative="1" as="geometry">
            <mxPoint x="310" y="580" as="targetPoint" />
          </mxGeometry>
        </mxCell>
        <mxCell id="WD45U_8TrC-EwpL1BpPQ-16" value="&lt;b&gt;WEB SOCKET&lt;/b&gt;" style="edgeLabel;html=1;align=center;verticalAlign=middle;resizable=0;points=[];" vertex="1" connectable="0" parent="WD45U_8TrC-EwpL1BpPQ-15">
          <mxGeometry x="-0.0807" y="-6" relative="1" as="geometry">
            <mxPoint y="1" as="offset" />
          </mxGeometry>
        </mxCell>
        <mxCell id="YzpoUHX3hyA8Y1LbCeKg-5" value="" style="rounded=1;whiteSpace=wrap;html=1;" parent="1" vertex="1">
          <mxGeometry x="10" width="600" height="500" as="geometry" />
        </mxCell>
        <mxCell id="YzpoUHX3hyA8Y1LbCeKg-3" value="Prev" style="rounded=0;whiteSpace=wrap;html=1;shadow=1;" parent="1" vertex="1">
          <mxGeometry x="130" y="400" width="100" height="20" as="geometry" />
        </mxCell>
        <mxCell id="YzpoUHX3hyA8Y1LbCeKg-44" value="" style="edgeStyle=orthogonalEdgeStyle;rounded=0;orthogonalLoop=1;jettySize=auto;html=1;entryX=0.375;entryY=1.05;entryDx=0;entryDy=0;entryPerimeter=0;" parent="1" source="YzpoUHX3hyA8Y1LbCeKg-4" edge="1" target="YzpoUHX3hyA8Y1LbCeKg-10">
          <mxGeometry relative="1" as="geometry">
            <mxPoint x="690" y="410" as="targetPoint" />
          </mxGeometry>
        </mxCell>
        <mxCell id="WD45U_8TrC-EwpL1BpPQ-4" value="Calcola Prossimo Stato" style="edgeLabel;html=1;align=center;verticalAlign=middle;resizable=0;points=[];" vertex="1" connectable="0" parent="YzpoUHX3hyA8Y1LbCeKg-44">
          <mxGeometry x="-0.4096" y="4" relative="1" as="geometry">
            <mxPoint y="1" as="offset" />
          </mxGeometry>
        </mxCell>
        <mxCell id="YzpoUHX3hyA8Y1LbCeKg-4" value="Next" style="rounded=0;whiteSpace=wrap;html=1;shadow=1;" parent="1" vertex="1">
          <mxGeometry x="350" y="400" width="100" height="20" as="geometry" />
        </mxCell>
        <mxCell id="YzpoUHX3hyA8Y1LbCeKg-6" value="STEPPER" style="text;html=1;align=center;verticalAlign=middle;whiteSpace=wrap;rounded=0;" parent="1" vertex="1">
          <mxGeometry x="460" y="10" width="60" height="30" as="geometry" />
        </mxCell>
        <mxCell id="YzpoUHX3hyA8Y1LbCeKg-7" value="MFE" style="text;html=1;align=center;verticalAlign=middle;whiteSpace=wrap;rounded=0;" parent="1" vertex="1">
          <mxGeometry x="384" y="70" width="60" height="30" as="geometry" />
        </mxCell>
        <mxCell id="YzpoUHX3hyA8Y1LbCeKg-8" value="" style="endArrow=classic;html=1;rounded=0;" parent="1" edge="1">
          <mxGeometry width="50" height="50" relative="1" as="geometry">
            <mxPoint x="450" y="202.5" as="sourcePoint" />
            <mxPoint x="660" y="203" as="targetPoint" />
          </mxGeometry>
        </mxCell>
        <mxCell id="WD45U_8TrC-EwpL1BpPQ-7" value="HTTP API" style="edgeLabel;html=1;align=center;verticalAlign=middle;resizable=0;points=[];" vertex="1" connectable="0" parent="YzpoUHX3hyA8Y1LbCeKg-8">
          <mxGeometry x="-0.1904" y="-2" relative="1" as="geometry">
            <mxPoint as="offset" />
          </mxGeometry>
        </mxCell>
        <mxCell id="YzpoUHX3hyA8Y1LbCeKg-1" value="" style="whiteSpace=wrap;html=1;aspect=fixed;" parent="1" vertex="1">
          <mxGeometry x="130" y="60" width="320" height="320" as="geometry" />
        </mxCell>
        <mxCell id="YzpoUHX3hyA8Y1LbCeKg-9" value="" style="endArrow=classic;html=1;rounded=0;entryX=1;entryY=0.5;entryDx=0;entryDy=0;" parent="1" target="YzpoUHX3hyA8Y1LbCeKg-1" edge="1">
          <mxGeometry width="50" height="50" relative="1" as="geometry">
            <mxPoint x="660" y="220" as="sourcePoint" />
            <mxPoint x="670" y="210" as="targetPoint" />
          </mxGeometry>
        </mxCell>
        <mxCell id="WD45U_8TrC-EwpL1BpPQ-12" value="" style="edgeStyle=orthogonalEdgeStyle;rounded=0;orthogonalLoop=1;jettySize=auto;html=1;entryX=0.5;entryY=0;entryDx=0;entryDy=0;dashed=1;strokeWidth=3;" edge="1" parent="1" source="YzpoUHX3hyA8Y1LbCeKg-10" target="YzpoUHX3hyA8Y1LbCeKg-47">
          <mxGeometry relative="1" as="geometry">
            <mxPoint x="740" y="320" as="targetPoint" />
          </mxGeometry>
        </mxCell>
        <mxCell id="WD45U_8TrC-EwpL1BpPQ-13" value="Prossimo Stato" style="edgeLabel;html=1;align=center;verticalAlign=middle;resizable=0;points=[];" vertex="1" connectable="0" parent="WD45U_8TrC-EwpL1BpPQ-12">
          <mxGeometry x="-0.008" y="3" relative="1" as="geometry">
            <mxPoint as="offset" />
          </mxGeometry>
        </mxCell>
        <mxCell id="YzpoUHX3hyA8Y1LbCeKg-10" value="&lt;div style=&quot;font-size: 13px;&quot;&gt;&lt;b&gt;&lt;font style=&quot;font-size: 13px;&quot;&gt;ORCHESTRATORE&lt;/font&gt;&lt;/b&gt;&lt;/div&gt;" style="rounded=1;whiteSpace=wrap;html=1;strokeWidth=2;fillWeight=4;hachureGap=8;hachureAngle=45;fillColor=#1ba1e2;sketch=1;" parent="1" vertex="1">
          <mxGeometry x="660" y="180" width="160" height="60" as="geometry" />
        </mxCell>
        <mxCell id="YzpoUHX3hyA8Y1LbCeKg-11" value="" style="shape=table;startSize=0;container=1;collapsible=0;childLayout=tableLayout;fontSize=16;fillColor=default;" parent="1" vertex="1">
          <mxGeometry x="630" y="20" width="214" height="150" as="geometry" />
        </mxCell>
        <mxCell id="YzpoUHX3hyA8Y1LbCeKg-12" value="" style="shape=tableRow;horizontal=0;startSize=0;swimlaneHead=0;swimlaneBody=0;strokeColor=inherit;top=0;left=0;bottom=0;right=0;collapsible=0;dropTarget=0;fillColor=none;points=[[0,0.5],[1,0.5]];portConstraint=eastwest;fontSize=16;" parent="YzpoUHX3hyA8Y1LbCeKg-11" vertex="1">
          <mxGeometry width="214" height="75" as="geometry" />
        </mxCell>
        <mxCell id="YzpoUHX3hyA8Y1LbCeKg-13" value="/save" style="shape=partialRectangle;html=1;whiteSpace=wrap;connectable=0;strokeColor=inherit;overflow=hidden;fillColor=none;top=0;left=0;bottom=0;right=0;pointerEvents=1;fontSize=16;" parent="YzpoUHX3hyA8Y1LbCeKg-12" vertex="1">
          <mxGeometry width="100" height="75" as="geometry">
            <mxRectangle width="100" height="75" as="alternateBounds" />
          </mxGeometry>
        </mxCell>
        <mxCell id="YzpoUHX3hyA8Y1LbCeKg-14" value="process_id&amp;nbsp;&lt;div&gt;transaction_id&lt;/div&gt;&lt;div&gt;app_id&lt;/div&gt;" style="shape=partialRectangle;html=1;whiteSpace=wrap;connectable=0;strokeColor=inherit;overflow=hidden;fillColor=none;top=0;left=0;bottom=0;right=0;pointerEvents=1;fontSize=16;" parent="YzpoUHX3hyA8Y1LbCeKg-12" vertex="1">
          <mxGeometry x="100" width="114" height="75" as="geometry">
            <mxRectangle width="114" height="75" as="alternateBounds" />
          </mxGeometry>
        </mxCell>
        <mxCell id="YzpoUHX3hyA8Y1LbCeKg-36" value="" style="shape=tableRow;horizontal=0;startSize=0;swimlaneHead=0;swimlaneBody=0;strokeColor=inherit;top=0;left=0;bottom=0;right=0;collapsible=0;dropTarget=0;fillColor=none;points=[[0,0.5],[1,0.5]];portConstraint=eastwest;fontSize=16;" parent="YzpoUHX3hyA8Y1LbCeKg-11" vertex="1">
          <mxGeometry y="75" width="214" height="75" as="geometry" />
        </mxCell>
        <mxCell id="YzpoUHX3hyA8Y1LbCeKg-37" value="/retrieve" style="shape=partialRectangle;html=1;whiteSpace=wrap;connectable=0;strokeColor=inherit;overflow=hidden;fillColor=none;top=0;left=0;bottom=0;right=0;pointerEvents=1;fontSize=16;" parent="YzpoUHX3hyA8Y1LbCeKg-36" vertex="1">
          <mxGeometry width="100" height="75" as="geometry">
            <mxRectangle width="100" height="75" as="alternateBounds" />
          </mxGeometry>
        </mxCell>
        <mxCell id="YzpoUHX3hyA8Y1LbCeKg-38" value="process_id&amp;nbsp;&lt;div&gt;transaction_id&lt;/div&gt;&lt;div&gt;app_id&lt;/div&gt;" style="shape=partialRectangle;html=1;whiteSpace=wrap;connectable=0;strokeColor=inherit;overflow=hidden;fillColor=none;top=0;left=0;bottom=0;right=0;pointerEvents=1;fontSize=16;" parent="YzpoUHX3hyA8Y1LbCeKg-36" vertex="1">
          <mxGeometry x="100" width="114" height="75" as="geometry">
            <mxRectangle width="114" height="75" as="alternateBounds" />
          </mxGeometry>
        </mxCell>
        <mxCell id="WD45U_8TrC-EwpL1BpPQ-18" value="" style="edgeStyle=orthogonalEdgeStyle;rounded=0;orthogonalLoop=1;jettySize=auto;html=1;entryX=1;entryY=0.5;entryDx=0;entryDy=0;dashed=1;strokeWidth=3;" edge="1" parent="1" source="YzpoUHX3hyA8Y1LbCeKg-47" target="WD45U_8TrC-EwpL1BpPQ-6">
          <mxGeometry relative="1" as="geometry">
            <mxPoint x="840" y="530" as="targetPoint" />
            <Array as="points">
              <mxPoint x="840" y="585" />
            </Array>
          </mxGeometry>
        </mxCell>
        <mxCell id="WD45U_8TrC-EwpL1BpPQ-19" value="Carica Prossimo Stato" style="edgeLabel;html=1;align=center;verticalAlign=middle;resizable=0;points=[];" vertex="1" connectable="0" parent="WD45U_8TrC-EwpL1BpPQ-18">
          <mxGeometry x="0.2116" y="-3" relative="1" as="geometry">
            <mxPoint as="offset" />
          </mxGeometry>
        </mxCell>
        <mxCell id="YzpoUHX3hyA8Y1LbCeKg-47" value="&lt;b&gt;&lt;font style=&quot;font-size: 22px;&quot;&gt;Kafka&lt;/font&gt;&lt;/b&gt;" style="ellipse;whiteSpace=wrap;html=1;strokeWidth=2;fillWeight=2;hachureGap=8;fillColor=#990000;fillStyle=dots;sketch=1;" parent="1" vertex="1">
          <mxGeometry x="780" y="390" width="120" height="60" as="geometry" />
        </mxCell>
        <mxCell id="WD45U_8TrC-EwpL1BpPQ-3" value="&lt;h1 style=&quot;margin-top: 0px;&quot;&gt;MFE&lt;/h1&gt;&lt;p&gt;Potremmo prevedere una piccola libereria di gestione dello stato con ngrx?&amp;nbsp;&lt;/p&gt;" style="text;html=1;whiteSpace=wrap;overflow=hidden;rounded=0;" vertex="1" parent="1">
          <mxGeometry x="160" y="90" width="180" height="120" as="geometry" />
        </mxCell>
        <mxCell id="WD45U_8TrC-EwpL1BpPQ-6" value="PUSH HANDLER" style="rounded=1;whiteSpace=wrap;html=1;strokeWidth=2;fillWeight=4;hachureGap=8;hachureAngle=45;fillColor=#1ba1e2;sketch=1;fontStyle=1;fontSize=17;" vertex="1" parent="1">
          <mxGeometry x="510" y="555" width="120" height="60" as="geometry" />
        </mxCell>
      </root>
    </mxGraphModel>
  </diagram>
</mxfile>
